<svg width="25" height="25" viewBox="0 0 25 25" fill="none" xmlns="http://www.w3.org/2000/svg">
<path d="M24.7814 23.7251L18.7061 17.6497C20.3358 15.7761 21.3225 13.3315 21.3225 10.6596C21.3225 4.77827 16.5387 0 10.6628 0C4.78145 0 0.00317383 4.78381 0.00317383 10.6596C0.00317383 16.5355 4.78699 21.3193 10.6628 21.3193C13.3347 21.3193 15.7792 20.3326 17.6528 18.7029L23.7282 24.7783C23.8724 24.9224 24.0664 25 24.2548 25C24.4433 25 24.6373 24.9279 24.7814 24.7783C25.0697 24.49 25.0697 24.0133 24.7814 23.7251ZM1.4943 10.6596C1.4943 5.60421 5.60739 1.49667 10.6573 1.49667C15.7127 1.49667 19.8202 5.60976 19.8202 10.6596C19.8202 15.7095 15.7127 19.8282 10.6573 19.8282C5.60739 19.8282 1.4943 15.7151 1.4943 10.6596Z" fill="black"/>
</svg>
