<svg width="38" height="27" viewBox="0 0 38 27" fill="none" xmlns="http://www.w3.org/2000/svg">
<path d="M36.9578 4.62698C36.5256 3.02046 35.259 1.75406 33.6527 1.32147C30.7182 0.518555 18.98 0.518555 18.98 0.518555C18.98 0.518555 7.24226 0.518555 4.30777 1.29103C2.73238 1.72316 1.43484 3.02069 1.00272 4.62698C0.230469 7.56125 0.230469 13.6465 0.230469 13.6465C0.230469 13.6465 0.230469 19.7625 1.00272 22.6661C1.4353 24.2724 2.70148 25.5388 4.308 25.9714C7.27316 26.7745 18.9805 26.7745 18.9805 26.7745C18.9805 26.7745 30.7182 26.7745 33.6527 26.002C35.2592 25.5697 36.5256 24.3033 36.9582 22.697C37.7302 19.7625 37.7302 13.6774 37.7302 13.6774C37.7302 13.6774 37.7611 7.56125 36.9578 4.62698ZM15.2428 19.2683V8.02473L25.0037 13.6465L15.2428 19.2683Z" fill="black"/>
</svg>
