<svg width="20" height="18" viewBox="0 0 20 18" fill="none" xmlns="http://www.w3.org/2000/svg">
<path d="M14.7114 9.06857C14.4354 8.98475 14.2462 8.92686 14.3906 8.55822C14.7031 7.75721 14.7359 7.06636 14.3968 6.57349C13.7608 5.64887 12.0213 5.69852 10.0279 6.54877C10.0279 6.54777 9.40161 6.82756 9.56161 6.32184C9.86834 5.31802 9.82171 4.47782 9.34492 3.99239C8.26352 2.89068 5.38693 4.0342 2.9194 6.54435C1.07216 8.42495 0 10.4183 0 12.1417C0 15.438 4.15276 17.6432 8.21588 17.6432C13.5419 17.6432 17.0854 14.2925 17.0854 11.7918C17.0854 10.2804 15.835 9.42294 14.7114 9.06857ZM8.22693 16.1653C4.98472 16.4865 2.18653 15.0137 1.97568 12.8728C1.76523 10.7329 4.22332 8.73651 7.46513 8.4143C10.7075 8.09148 13.5063 9.56545 13.7164 11.7054C13.9262 13.8463 11.4697 15.8428 8.22693 16.1653ZM20 6.38435C19.9984 3.0553 17.2995 0.356812 13.9698 0.356812C13.5811 0.356812 13.2663 0.671786 13.2663 1.06033C13.2663 1.44907 13.5811 1.76385 13.9698 1.76385C16.5232 1.76385 18.593 3.8338 18.593 6.38696C18.593 6.7757 18.9081 7.09048 19.2965 7.09048C19.6852 7.09048 20 6.7757 20 6.38696C20 6.38696 20 6.38535 20 6.38435ZM17.2046 6.28103C16.8832 4.71138 15.6458 3.4742 14.076 3.15259C13.6959 3.0744 13.3238 3.31942 13.2458 3.69993C13.1674 4.08043 13.4125 4.45209 13.7926 4.53068C14.8133 4.73973 15.6177 5.54354 15.8265 6.56425C15.9051 6.94475 16.2768 7.18957 16.6573 7.11158C17.0376 7.03299 17.2824 6.66133 17.2046 6.28103ZM6.56402 10.5104C5.25789 10.7729 4.37668 11.8682 4.59538 12.9564C4.81387 14.0448 6.05005 14.7142 7.35618 14.4515C8.66191 14.189 9.54352 13.0941 9.32462 12.0055C9.10633 10.9174 7.86975 10.2479 6.56402 10.5104Z" fill="black"/>
</svg>
