<svg width="25" height="25" viewBox="0 0 25 25" fill="none" xmlns="http://www.w3.org/2000/svg">
<path d="M24.7812 23.7251L18.7058 17.6497C20.3355 15.7761 21.3222 13.3315 21.3222 10.6596C21.3222 4.77827 16.5384 0 10.6626 0C4.7812 0 0.00292969 4.78381 0.00292969 10.6596C0.00292969 16.5355 4.78674 21.3193 10.6626 21.3193C13.3344 21.3193 15.779 20.3326 17.6526 18.7029L23.728 24.7783C23.8721 24.9224 24.0661 25 24.2546 25C24.4431 25 24.6371 24.9279 24.7812 24.7783C25.0695 24.49 25.0695 24.0133 24.7812 23.7251ZM1.49406 10.6596C1.49406 5.60421 5.60714 1.49667 10.657 1.49667C15.7125 1.49667 19.82 5.60976 19.82 10.6596C19.82 15.7095 15.7125 19.8282 10.657 19.8282C5.60714 19.8282 1.49406 15.7151 1.49406 10.6596Z" fill="white"/>
</svg>
