<svg width="39" height="39" viewBox="0 0 39 39" fill="none" xmlns="http://www.w3.org/2000/svg">
<path d="M14.625 2.4375C6.54713 2.4375 0 7.89506 0 14.625C0 18.5055 2.18887 21.9473 5.58431 24.1751L3.65625 28.0312L8.90906 25.7814C10.0352 26.1812 11.2052 26.5103 12.4556 26.6638C12.285 25.9204 12.1875 25.1574 12.1875 24.375C12.1875 17.6548 18.7468 12.1875 26.8125 12.1875C27.5511 12.1875 28.2726 12.2484 28.9843 12.3362C27.6973 6.70069 21.762 2.4375 14.625 2.4375ZM9.75 11.5781C8.74088 11.5781 7.92188 10.7591 7.92188 9.75C7.92188 8.74087 8.74088 7.92188 9.75 7.92188C10.7591 7.92188 11.5781 8.74087 11.5781 9.75C11.5781 10.7591 10.7591 11.5781 9.75 11.5781ZM19.5 11.5781C18.4909 11.5781 17.6719 10.7591 17.6719 9.75C17.6719 8.74087 18.4909 7.92188 19.5 7.92188C20.5091 7.92188 21.3281 8.74087 21.3281 9.75C21.3281 10.7591 20.5091 11.5781 19.5 11.5781Z" fill="white"/>
<path d="M39 24.375C39 18.9906 33.5424 14.625 26.8125 14.625C20.0826 14.625 14.625 18.9906 14.625 24.375C14.625 29.7594 20.0826 34.125 26.8125 34.125C27.9191 34.125 28.9721 33.969 29.9934 33.7472L36.5625 36.5625L34.2908 32.0214C37.1377 30.2372 39 27.4926 39 24.375ZM23.1562 23.7656C22.1471 23.7656 21.3281 22.9466 21.3281 21.9375C21.3281 20.9284 22.1471 20.1094 23.1562 20.1094C24.1654 20.1094 24.9844 20.9284 24.9844 21.9375C24.9844 22.9466 24.1654 23.7656 23.1562 23.7656ZM30.4688 23.7656C29.4596 23.7656 28.6406 22.9466 28.6406 21.9375C28.6406 20.9284 29.4596 20.1094 30.4688 20.1094C31.4779 20.1094 32.2969 20.9284 32.2969 21.9375C32.2969 22.9466 31.4779 23.7656 30.4688 23.7656Z" fill="white"/>
</svg>
