<?xml version="1.0" encoding="utf-8"?>
<!-- Generator: Adobe Illustrator 18.1.1, SVG Export Plug-In . SVG Version: 6.00 Build 0)  -->
<svg version="1.1" id="Layer_1" xmlns="http://www.w3.org/2000/svg" xmlns:xlink="http://www.w3.org/1999/xlink" x="0px" y="0px"
	 viewBox="-147 1594 24 24" enable-background="new -147 1594 24 24" xml:space="preserve">
<path d="M-133.7,1606l10.4-10.4c0.4-0.4,0.4-1,0-1.3c-0.4-0.4-1-0.4-1.3,0l-10.4,10.4l-10.4-10.4c-0.4-0.4-1-0.4-1.3,0
	c-0.4,0.4-0.4,1,0,1.3l10.4,10.4l-10.4,10.4c-0.4,0.4-0.4,1,0,1.3c0.2,0.2,0.4,0.3,0.7,0.3s0.5-0.1,0.7-0.3l10.4-10.4l10.4,10.4
	c0.2,0.2,0.4,0.3,0.7,0.3c0.2,0,0.5-0.1,0.7-0.3c0.4-0.4,0.4-1,0-1.3L-133.7,1606z"/>
</svg>
