<svg width="34" height="34" viewBox="0 0 34 34" fill="none" xmlns="http://www.w3.org/2000/svg">
<path fill-rule="evenodd" clip-rule="evenodd" d="M10.4369 0H22.9611C28.7244 0 33.398 4.67363 33.398 10.4369V22.9611C33.398 28.7244 28.7244 33.398 22.9611 33.398H10.4369C4.67363 33.398 0 28.7244 0 22.9611V10.4369C0 4.67363 4.67363 0 10.4369 0ZM22.9614 30.2672C26.99 30.2672 30.2672 26.99 30.2672 22.9613V10.4371C30.2672 6.40845 26.99 3.13127 22.9614 3.13127H10.4371C6.40847 3.13127 3.13129 6.40845 3.13129 10.4371V22.9613C3.13129 26.99 6.40847 30.2672 10.4371 30.2672H22.9614Z" fill="white"/>
<path fill-rule="evenodd" clip-rule="evenodd" d="M8.34955 16.6991C8.34955 12.0881 12.088 8.34961 16.6991 8.34961C21.3101 8.34961 25.0486 12.0881 25.0486 16.6991C25.0486 21.3101 21.3101 25.0486 16.6991 25.0486C12.088 25.0486 8.34955 21.3101 8.34955 16.6991ZM11.4808 16.6993C11.4808 19.5757 13.8228 21.9177 16.6992 21.9177C19.5756 21.9177 21.9177 19.5757 21.9177 16.6993C21.9177 13.8208 19.5756 11.4808 16.6992 11.4808C13.8228 11.4808 11.4808 13.8208 11.4808 16.6993Z" fill="white"/>
<path d="M25.6747 8.83623C26.2892 8.83623 26.7873 8.33811 26.7873 7.72366C26.7873 7.1092 26.2892 6.61108 25.6747 6.61108C25.0602 6.61108 24.5621 7.1092 24.5621 7.72366C24.5621 8.33811 25.0602 8.83623 25.6747 8.83623Z" fill="white"/>
</svg>
