<svg width="175" height="34" viewBox="0 0 175 34" fill="none" xmlns="http://www.w3.org/2000/svg">
<g clip-path="url(#clip0)">
<path d="M105.7 15.2999V19.6999L116.3 32.6999H130.7L120.7 20.3999C125 19.4999 128.2 15.5999 128.2 10.9999C128.2 5.6999 123.9 1.3999 118.6 1.3999H91.5V32.5999H103.6V6.9999H113C115.3 6.9999 117.1 8.8999 117.1 11.0999C117.1 13.3999 115.2 15.1999 113 15.1999H105.7V15.2999Z" fill="#C6333A"/>
<path d="M57.8 1.3999H71.1L86.4 32.5999H73.1L70.2 26.6999H54.7L57.3 21.4999H67.6L61.2 8.2999L49.3 32.5999H42.6L57.8 1.3999Z" fill="#C6333A"/>
<path d="M136.3 1.3999H148.7V26.7999H174.6V32.5999H136.3V1.3999Z" fill="#C6333A"/>
<path d="M21.2 33.6C9.5 33.6 0 26.1 0 16.8C0 7.5 9.5 0 21.2 0C27.9 0 34.1 1.3 39.1 3.4V9.5C36.4 7.2 32.3 5.7 27.8 5.7C19.5 5.7 12.8 10.7 12.8 16.8C12.8 22.9 19.5 27.9 27.8 27.9C32.3 27.9 36.3 26.4 39.1 24.1V30.2C34.1 32.3 27.9 33.6 21.2 33.6Z" fill="#C6333A"/>
</g>
<defs>
<clipPath id="clip0">
<rect width="174.6" height="33.6" fill="white"/>
</clipPath>
</defs>
</svg>
