<svg width="89" height="17" viewBox="0 0 89 17" fill="none" xmlns="http://www.w3.org/2000/svg">
<g clip-path="url(#clip0)">
<path d="M53.479 7.74123V9.96742L58.8421 16.5448H66.1278L61.0682 10.3216C63.2438 9.86623 64.8629 7.89302 64.8629 5.56564C64.8629 2.88409 62.6873 0.708496 60.0057 0.708496H46.2944V16.4942H52.4165V3.54183H57.1724C58.3361 3.54183 59.2468 4.50314 59.2468 5.61623C59.2468 6.77992 58.2855 7.69064 57.1724 7.69064H53.479V7.74123Z" fill="white"/>
<path d="M29.2442 0.708496H35.9734L43.7144 16.4942H36.9853L35.518 13.5091H27.6757L28.9912 10.8781H34.2025L30.9644 4.19957L24.9436 16.4942H21.5537L29.2442 0.708496Z" fill="white"/>
<path d="M68.9614 0.708496H75.2352V13.5597H88.3394V16.4942H68.9614V0.708496Z" fill="white"/>
<path d="M10.7262 17C4.80655 17 0 13.2054 0 8.5C0 3.79464 4.80655 0 10.7262 0C14.1161 0 17.253 0.657738 19.7827 1.72024V4.80655C18.4167 3.64286 16.3423 2.88393 14.0655 2.88393C9.86607 2.88393 6.47619 5.41369 6.47619 8.5C6.47619 11.5863 9.86607 14.1161 14.0655 14.1161C16.3423 14.1161 18.3661 13.3571 19.7827 12.1935V15.2798C17.253 16.3423 14.1161 17 10.7262 17Z" fill="white"/>
</g>
<defs>
<clipPath id="clip0">
<rect width="88.3393" height="17" fill="white"/>
</clipPath>
</defs>
</svg>
